<?xml version="1.0" encoding="UTF-8" standalone="no"?>

            <!DOCTYPE svg PUBLIC "-//W3C//DTD SVG 1.1//EN" "http://www.w3.org/Graphics/SVG/1.1/DTD/svg11.dtd">
            <svg width="650" height="310" xmlns="http://www.w3.org/2000/svg" xmlns:xlink="http://www.w3.org/1999/xlink"  style="background-color:#303030" >
<polyline points=" 2,202 3,205 4,204 5,205 8,204 9,205 10,204 11,207 12,205 16,204 17,205 19,202 19,205 21,204 22,202 24,204 25,202 26,205 27,204 28,202 29,204 29,202 30,200 31,202 32,200 33,202 34,200 35,198 35,200 36,202 37,198 40,202 41,198 42,200 44,198 45,200 46,198 50,196 51,198 53,195 53,198 55,195 56,198 56,196 57,193 58,196 59,195 60,193 61,191 62,193 62,191 63,187 64,189 65,187 66,182 67,177 68,175 68,173 69,170 70,171 71,170 71,168 72,171 73,168 74,170 74,171 75,166 76,170 77,168 77,171 78,170 80,173 80,171 82,175 83,173 83,170 84,164 85,157 86,162 87,170 88,175 89,182 89,184 90,182 91,180 92,179 92,177 93,175 95,171 95,170 96,168 97,166 99,164 100,162 102,175 103,182 104,186 105,184 106,182 107,180 108,177 110,175 111,173 112,170 113,168 114,166 115,161 116,164 117,170 117,180 119,182 120,180 120,179 121,177 122,175 123,173 123,171 124,170 125,166 127,162 128,161 129,164 129,171 130,177 131,187 132,182 133,180 134,179 135,177 135,175 136,171 137,170 138,168 139,166 140,162 141,161 142,171 143,177 144,186 144,189 145,186 146,184 147,182 148,179 149,175 150,171 151,170 153,166 154,164 155,162 156,161 156,162 157,171 158,179 159,184 159,182 160,180 161,179 162,175 162,173 168,171 171,170 176,168 177,166 178,164 179,162 180,159 183,157 185,155 186,154 187,157 189,155 189,154 190,157 192,154 193,155 193,157 194,155 195,157 196,159 196,161 197,164 198,168 199,175 201,179 202,180 203,186 205,191 207,193 208,195 209,198 210,196 211,198 212,196 213,200 214,198 215,202 217,204 217,202 219,205 220,204 221,205 222,204 223,205 226,204 226,205 230,204 231,205 232,202 233,205 235,204 235,205 236,204 237,202 239,200 240,202 243,200 244,204 245,202 247,204 247,202 248,200 249,204 250,196 250,191 253,180 253,186 254,182 255,177 256,180 257,179 258,175 259,177 259,179 261,180 262,184 263,186 264,189 265,187 266,191 268,189 268,193 269,189 270,193 272,191 273,193 274,191 276,189 277,191 279,193 281,196 282,195 284,193 284,195 285,193 288,195 290,193 291,191 293,195 293,189 294,191 295,193 296,191 296,193 297,195 299,191 301,193 302,191 302,196 303,195 304,193 305,189 305,187 306,184 307,182 308,180 308,177 309,175 310,173 311,171 311,170 313,164 314,162 317,166 317,175 318,180 319,184 320,180 322,179 323,175 323,173 324,171 325,170 326,166 327,164 328,162 329,161 329,162 330,168 331,175 332,186 333,182 335,179 335,175 336,173 338,171 338,168 340,164 342,162 343,161 344,162 344,168 345,175 346,180 347,182 348,179 350,175 350,173 351,171 353,170 354,166 356,164 357,162 357,161 358,162 359,170 360,177 360,182 361,187 362,186 363,180 364,177 365,175 366,171 369,170 369,168 370,166 372,164 372,162 373,161 375,171 376,184 377,189 378,187 379,186 380,184 381,182 381,179 382,177 384,173 386,177 387,180 388,182 390,186 390,184 391,182 392,180 393,179 393,182 394,184 396,182 397,189 398,186 399,184 399,186 400,184 401,180 402,177 402,175 403,171 404,168 405,164 405,159 406,155 407,159 408,161 408,157 410,161 411,159 411,155 412,161 413,159 414,157 415,154 416,157 417,152 418,157 419,155 420,157 421,154 423,155 424,157 426,161 426,164 427,162 430,168 431,164 432,168 433,164 435,168 436,164 436,170 438,177 439,184 441,182 442,187 442,189 443,184 444,187 445,191 445,189 447,193 449,195 450,193 451,195 451,191 453,195 454,193 454,195 455,196 456,195 457,196 457,195 459,200 460,198 460,196 461,202 462,204 463,209 463,213 464,211 465,214 466,216 468,220 469,221 470,223 471,221 472,225 472,227 473,223 474,227 475,225 476,227 478,229 479,230 481,229 481,230 484,232 484,230 486,234 487,232 489,234 490,232 490,230 491,234 492,232 494,229 495,230 498,227 499,229 499,227 501,229 502,227 503,229 504,225 505,223 506,225 507,227 508,223 508,225 510,223 511,225 513,229 514,227 515,230 516,232 517,230 518,232 518,234 519,230 521,229 521,225 522,221 523,216 524,214 525,207 526,205 527,204 527,202 528,198 530,195 531,193 533,189 533,187 534,184 536,182 536,179 538,177 539,175 541,173 542,171 543,170 544,168 545,164 546,166 547,162 549,161 550,171 551,186 553,189 554,186 554,184 555,182 556,180 557,179 558,177 559,175 560,173 562,170 563,168 565,166 566,164 569,162 570,161 571,164 572,171 572,179 573,184 575,182 576,180 577,179 578,177 579,175 581,173 581,171 583,170 584,168 585,166 587,164 588,162 590,161 590,164 591,173 592,180 593,184 594,182 595,180 597,179 598,177 603,175 606,173 606,171 610,170 612,168 613,164 615,162 617,168 621,170 622,168 623,166 624,164 625,161 627,159 628,157 630,155 631,157 632,155 633,154 633,155 634,154 637,154 638,155 639,154 640,157 641,155 643,159 644,157 645,155 645,161 647,157 648,161 649,159" fill="none" stroke="#FF1493" />
<polyline points=" 0,129 0,132 1,129 2,125 2,129 2,132 3,129 4,125 4,129 4,132 5,129 6,125 6,129 6,132 7,129 7,125 8,129 8,132 9,129 9,125 10,129 11,132 11,129 11,125 12,129 12,125 12,129 12,132 13,129 14,125 14,129 14,132 15,129 16,125 16,129 17,132 17,129 18,125 18,129 19,132 20,129 20,125 20,129 21,132 22,129 23,125 23,129 23,132 23,136 23,132 24,136 24,132 24,129 25,132 25,136 26,132 26,129 28,132 28,136 28,132 29,129 30,132 30,136 31,132 31,129 32,132 32,136 33,132 33,129 34,132 34,136 35,132 36,129 36,132 37,136 37,132 38,136 38,132 38,129 39,132 39,136 40,132 40,129 41,132 41,136 42,132 43,129 43,132 44,136 45,132 45,129 46,132 46,136 47,132 47,129 48,132 48,136 49,132 50,129 50,132 50,136 51,132 52,129 52,132 53,136 54,132 54,129 54,132 54,136 56,132 56,129 56,132 57,136 58,132 59,136 60,132 60,129 60,132 61,136 62,132 62,129 62,132 62,129 63,132 63,136 64,132 64,129 65,132 65,136 66,132 66,129 67,132 67,136 68,132 68,129 69,132 69,136 70,132 70,129 71,132 71,136 72,132 72,129 73,125 73,129 73,132 73,136 73,132 74,129 75,132 75,136 76,132 76,129 77,132 77,136 77,132 78,129 79,132 79,136 79,132 80,129 80,132 81,136 81,132 82,129 83,125 83,129 83,125 84,121 84,125 85,121 85,125 85,129 86,132 86,136 87,141 87,145 88,148 88,152 89,148 89,145 90,141 90,138 93,132 94,129 96,125 99,121 99,125 99,121 100,125 100,121 100,125 101,129 101,132 101,136 102,141 102,145 102,148 103,145 104,141 105,138 108,132 109,136 109,132 111,129 111,132 111,129 115,132 115,136 116,141 116,145 116,148 117,152 118,148 119,145 121,141 123,138 128,141 128,145 129,148 129,152 130,157 130,161 131,157 131,154 133,148 135,145 137,141 137,145 137,141 138,145 138,141 141,145 141,148 141,152 142,157 143,161 143,164 143,168 144,164 144,161 144,157 144,161 145,157 145,154 146,157 146,154 149,148 149,152 150,148 152,145 156,148 156,152 157,157 157,161 158,164 158,161 158,157 159,154 159,157 160,161 160,164 161,168 162,164 162,168 162,164 165,168 165,164 166,168 170,164 170,168 171,164 174,161 174,164 174,161 174,164 175,161 176,157 179,161 179,157 183,154 188,148 189,145 190,148 190,145 191,141 191,138 192,141 193,138 194,141 195,138 196,132 196,136 197,132 198,136 199,132 200,129 200,132 200,136 201,132 202,129 202,132 202,136 203,132 203,129 204,132 204,136 205,132 205,129 206,132 207,129 207,125 208,129 208,132 209,129 209,125 210,129 210,132 211,129 211,125 212,129 212,132 213,129 213,125 214,129 214,132 215,129 215,125 216,129 216,132 217,129 217,125 218,129 218,132 219,129 219,125 219,129 219,125 219,129 220,132 220,129 221,125 222,129 222,132 223,129 223,125 224,129 224,132 225,129 225,125 225,129 226,132 227,129 227,125 227,129 228,132 228,136 228,132 229,129 230,132 230,136 230,132 231,129 231,125 232,129 232,132 233,129 233,125 234,129 234,132 235,129 235,125 237,129 237,132 237,129 238,125 239,129 239,132 240,129 240,125 241,129 241,132 242,129 242,125 243,129 243,132 244,129 244,125 245,129 246,132 246,129 247,125 248,129 248,132 249,129 250,125 250,129 250,132 251,136 251,132 251,129 252,125 252,129 252,125 253,129 253,132 254,129 254,132 254,129 255,125 255,129 255,132 256,136 256,132 256,129 257,125 257,129 258,132 258,136 259,132 259,129 260,125 261,129 261,132 262,129 262,125 262,129 263,132 263,136 263,132 264,129 264,125 264,129 264,125 265,129 265,132 265,136 266,132 266,129 267,125 267,129 267,132 267,136 268,132 269,129 269,132 270,136 270,132 271,129 271,125 271,129 272,132 272,136 272,132 273,129 273,125 273,129 274,132 274,136 275,132 275,129 275,125 276,129 276,132 277,129 277,132 278,136 278,132 279,129 279,132 280,136 281,132 281,136 283,132 283,136 284,141 284,138 285,141 286,138 287,141 288,138 289,141 290,145 290,141 290,138 292,141 292,145 292,141 292,138 293,141 294,145 294,141 294,138 295,141 296,145 296,141 297,138 297,141 298,145 298,141 299,138 299,141 299,145 300,148 300,145 300,141 301,145 301,148 302,145 303,141 303,138 305,132 306,129 308,125 308,129 308,125 310,121 316,125 316,129 316,132 317,136 317,141 318,145 319,141 319,138 322,132 324,129 326,125 327,129 327,125 328,129 328,125 328,129 329,132 329,136 330,141 330,145 330,148 331,152 332,148 332,145 333,141 335,138 341,132 341,136 341,132 343,136 343,141 344,145 344,148 344,152 345,148 345,152 345,157 346,154 347,148 347,152 347,148 348,145 348,148 348,145 350,141 353,138 353,141 353,138 354,141 354,138 357,141 358,145 358,148 358,152 359,157 360,161 360,157 361,154 364,148 366,145 370,141 374,145 374,148 374,152 375,157 375,161 376,164 376,161 377,157 378,154 381,148 382,152 382,148 382,152 382,148 384,145 384,148 385,145 385,148 385,152 387,148 388,152 388,157 389,154 391,148 392,152 394,148 395,145 396,148 396,152 397,148 398,145 398,148 399,152 401,148 404,145 405,148 405,145 406,141 407,138 411,132 411,136 412,132 413,136 414,132 414,129 415,132 416,129 417,125 417,129 418,132 418,129 419,125 419,129 420,125 421,129 422,125 423,129 424,125 425,129 425,132 426,136 426,132 427,129 427,132 427,136 428,132 429,136 431,132 431,136 432,141 432,138 434,141 435,138 436,141 436,145 437,148 438,152 440,148 440,152 441,157 442,154 443,157 443,161 444,157 445,154 445,157 446,161 446,164 447,161 447,157 447,161 448,164 449,161 449,157 449,161 450,164 450,168 451,164 451,161 452,164 452,168 452,164 453,161 453,164 454,168 455,164 455,161 455,164 456,168 457,164 458,168 459,164 459,168 462,173 463,170 464,173 465,177 465,173 466,170 466,173 467,177 467,180 468,177 468,173 468,170 468,173 469,177 469,180 470,177 470,173 471,177 471,180 472,177 472,173 473,177 473,180 474,177 474,173 475,177 475,180 476,177 476,173 476,177 477,180 478,177 478,173 478,177 479,180 480,177 480,173 480,177 480,180 481,177 482,173 482,177 482,180 483,184 483,180 483,177 484,180 485,184 485,180 485,177 486,180 486,184 487,180 487,177 488,180 488,184 489,180 489,177 490,180 490,184 491,180 491,177 492,180 492,184 493,180 493,177 494,180 494,184 495,180 495,177 495,180 496,184 497,180 497,177 497,180 498,184 498,180 499,177 500,180 500,184 500,180 501,177 502,180 503,177 503,173 503,177 504,180 505,177 505,173 505,177 506,180 507,177 507,173 508,177 508,180 508,177 509,173 510,177 510,180 511,177 511,173 512,177 512,180 513,177 513,173 514,177 514,180 515,184 515,180 516,177 516,180 517,184 518,180 518,177 519,180 519,184 520,180 520,177 520,173 521,170 522,164 523,161 524,157 525,154 528,148 529,145 531,141 533,138 534,141 534,138 534,141 534,138 541,132 541,136 541,132 542,136 542,132 547,129 547,132 547,129 547,132 547,129 548,132 548,129 549,132 549,136 550,141 550,145 550,148 550,152 552,148 553,145 555,141 557,138 558,141 558,138 558,141 558,138 558,141 558,138 567,132 567,136 567,132 567,136 568,132 570,136 571,141 571,145 571,148 572,152 573,148 573,145 575,141 577,138 578,141 578,138 586,132 588,129 590,132 590,136 591,141 591,145 591,148 592,145 592,141 593,138 594,141 595,145 595,148 596,152 597,157 598,161 598,164 599,168 599,164 599,168 604,173 604,170 604,173 605,170 613,164 617,161 617,164 617,161 619,157 619,161 620,157 623,154 625,148 627,145 627,148 627,145 629,141 631,138 633,141 633,138 634,132 634,136 637,136 638,132 640,136 641,132 642,136 643,132 645,136 646,132 647,136" fill="none" stroke="#00FFFF" />
<polyline points=" 1,161 1,143 3,161 4,143 7,161 7,143 9,161 10,143 12,125 13,161 13,143 15,161 16,143 16,161 18,143 19,161 20,143 22,161 22,125 23,143 24,161 25,143 25,161 26,143 28,161 29,125 30,161 32,143 32,179 33,161 34,143 35,161 36,125 37,143 38,161 38,143 39,161 41,143 41,161 43,143 44,161 45,143 46,161 47,143 49,161 50,143 51,161 52,143 55,161 56,143 57,161 59,143 59,161 60,143 62,161 62,143 63,161 65,125 65,143 68,161 68,143 69,161 71,143 74,161 74,143 77,161 78,125 79,143 81,161 82,143 86,161 89,179 92,161 103,179 108,161 117,179 121,161 131,179 135,161 144,179 149,161 158,179 162,161 168,179 175,161 180,143 187,179 188,161 189,143 189,161 191,143 192,161 193,143 194,125 195,161 196,143 197,161 198,143 201,161 202,125 202,143 204,125 205,161 205,125 206,143 208,161 209,143 211,161 211,143 214,125 214,161 215,143 218,161 220,143 220,161 221,143 223,161 223,143 224,161 225,143 226,161 227,125 228,161 229,143 230,161 231,143 232,161 233,143 235,161 235,143 237,161 238,143 239,161 241,125 241,161 243,143 244,161 244,143 246,161 247,143 248,161 249,143 250,179 251,161 252,143 253,179 254,161 255,143 256,179 256,161 257,143 259,179 259,143 261,161 262,143 263,161 264,143 265,161 266,143 268,161 268,143 270,161 271,143 272,161 273,143 275,161 275,125 276,143 278,179 279,143 280,161 281,143 282,179 283,143 284,161 285,143 286,179 287,143 287,161 288,179 289,161 290,179 291,143 292,179 293,161 294,179 295,161 296,179 297,143 298,179 299,161 300,179 301,143 302,179 303,161 306,179 308,161 318,179 323,161 332,179 335,161 346,179 350,161 360,179 364,161 376,179 382,161 386,179 387,161 388,179 389,196 390,161 390,143 393,179 394,143 396,161 398,143 399,161 399,196 400,179 402,161 405,143 407,161 408,143 409,161 410,143 411,125 411,161 413,143 414,161 414,143 416,161 417,143 417,161 419,125 420,161 420,143 421,161 423,125 423,161 424,143 425,161 426,179 428,196 429,161 429,179 430,196 431,179 433,161 434,196 435,179 436,196 438,214 440,196 441,214 442,232 442,214 448,196 448,232 449,196 450,214 454,232 455,196 456,214 457,232 457,214 460,232 461,196 462,214 463,232 463,214 466,196 467,214 469,196 469,214 472,232 472,214 475,232 476,214 479,232 480,214 481,232 482,214 483,232 484,214 485,232 486,214 487,232 487,214 490,232 491,214 493,232 493,214 494,232 495,214 496,232 497,214 499,196 500,232 501,214 502,232 503,196 504,214 505,232 505,214 508,232 509,196 510,214 511,232 511,214 514,196 514,214 516,196 517,214 518,232 518,196 519,214 521,196 523,214 525,196 530,179 538,161 551,179 558,161 572,179 578,161 592,179 598,161 600,179 603,196 607,179 615,161 616,179 624,161 627,143 631,161 632,143 633,161 634,143 637,161 638,179 639,143 639,161 640,179 641,143 642,161 644,143 645,161 646,143 647,161 648,179 649,161" fill="none" stroke="#7FFF00" />
<polyline points=" 0,30 1,36 1,37 2,34 3,37 4,39 4,34 5,39 7,37 9,43 10,39 11,43 13,45 13,46 14,43 15,45 16,43 17,45 18,48 19,46 20,48 22,50 22,48 24,52 25,48 26,52 27,48 29,52 30,48 31,52 32,50 33,54 35,50 35,52 38,55 38,52 40,55 41,54 41,52 42,55 44,52 45,55 46,52 47,55 48,54 49,52 50,55 51,61 53,64 53,68 54,71 56,77 56,79 57,77 58,80 59,84 59,88 61,86 62,89 62,91 63,88 64,91 65,93 65,91 66,93 68,96 69,95 70,98 71,96 72,100 74,98 76,105 77,102 77,107 78,105 79,104 80,107 80,102 82,98 83,93 83,88 84,86 85,84 86,82 86,88 87,95 88,102 89,114 89,118 90,116 91,114 92,111 92,107 94,104 95,102 96,100 97,96 98,95 99,93 101,91 101,96 102,104 103,118 104,120 106,114 107,111 108,109 109,107 110,105 111,104 112,102 114,100 116,105 117,112 117,120 118,127 119,129 120,125 121,121 123,116 123,114 125,112 126,111 129,120 130,127 131,138 132,136 133,132 134,129 135,127 136,125 137,121 138,120 140,118 141,116 142,125 143,132 144,139 144,143 146,141 147,136 148,134 149,130 150,129 151,127 152,125 153,123 154,121 156,125 157,132 158,139 159,141 160,139 161,136 162,132 162,129 164,127 171,125 172,121 174,120 174,114 176,112 177,105 177,104 178,98 179,93 180,88 180,82 181,77 182,68 183,57 186,54 187,52 188,55 189,48 191,46 192,43 193,46 193,45 194,41 196,37 197,41 199,36 199,37 200,32 201,36 202,32 203,36 204,34 205,30 207,34 208,32 209,34 210,30 211,34 212,30 213,34 215,36 216,30 217,36 218,34 219,39 220,41 222,37 223,39 223,41 224,39 225,41 226,36 227,39 229,43 229,41 231,45 232,43 232,41 233,45 235,46 237,45 238,46 239,45 240,46 241,48 241,45 242,46 244,45 244,48 245,46 246,45 247,46 247,45 249,48 251,52 253,54 255,52 256,54 256,55 258,54 259,55 259,57 260,55 261,54 264,57 265,55 265,54 266,59 268,61 268,66 271,73 272,77 273,80 274,79 275,82 275,84 276,82 277,88 278,89 278,93 279,96 280,95 281,100 281,102 282,100 283,104 284,107 287,111 287,107 288,111 289,112 290,109 290,112 291,111 292,114 293,116 293,112 294,116 295,118 296,114 296,118 297,120 298,118 299,123 301,127 302,129 302,132 303,130 304,125 305,121 305,120 306,114 307,112 308,111 308,109 309,104 311,102 312,100 313,96 314,93 317,104 318,118 319,123 320,121 320,120 321,116 322,112 323,111 323,109 325,107 326,105 327,104 328,102 329,105 330,112 331,121 332,134 333,129 335,123 335,121 336,120 337,118 338,116 338,114 340,112 341,111 342,109 344,111 344,120 345,127 346,134 347,138 347,136 348,130 350,127 350,123 353,120 354,118 356,116 357,114 358,118 359,127 360,134 360,141 361,143 362,141 363,139 363,138 364,132 366,129 368,125 369,123 371,121 372,120 375,129 376,143 377,146 378,143 379,141 380,139 381,136 381,134 383,132 384,129 386,134 387,138 387,136 388,134 389,136 390,138 390,129 391,123 392,120 393,114 393,116 395,111 396,104 396,100 397,104 398,93 400,89 402,82 402,70 403,62 404,57 405,45 406,39 407,37 408,45 408,41 409,37 410,43 411,45 413,41 414,43 414,46 415,41 417,46 417,41 418,43 419,46 422,48 423,50 423,48 424,54 426,55 426,57 427,55 428,57 429,52 430,55 432,50 432,54 433,55 436,59 437,64 438,68 439,71 439,77 441,75 444,77 445,80 445,77 447,79 448,77 448,75 449,77 450,73 451,77 453,82 454,88 455,89 457,95 457,96 459,102 460,105 461,109 462,111 463,114 463,120 464,121 465,123 466,127 466,129 468,136 470,139 471,138 472,139 472,143 473,141 474,145 475,146 477,145 478,146 480,150 481,148 481,150 483,152 484,150 486,152 487,154 487,155 488,154 489,155 490,157 490,154 491,157 492,155 493,161 494,159 495,161 496,155 496,159 497,162 498,157 499,161 502,159 503,161 504,159 505,162 505,161 506,157 507,162 508,159 511,166 511,162 513,166 514,162 515,166 517,168 518,171 520,175 521,173 521,170 522,164 523,161 524,154 525,146 526,145 527,143 527,141 528,139 529,136 530,132 532,130 533,127 534,125 535,123 536,121 537,120 538,118 540,116 542,114 542,112 544,111 545,109 548,107 549,109 550,114 551,123 551,132 552,136 553,138 554,134 554,132 555,129 557,125 557,123 559,120 561,118 562,116 563,114 565,112 566,111 566,112 567,111 569,109 572,116 572,125 573,134 575,129 575,127 576,125 577,123 578,121 578,120 580,118 581,116 584,114 585,112 588,111 590,109 591,125 592,130 593,132 593,130 594,129 596,123 597,120 597,118 598,112 599,109 600,105 600,102 601,96 603,93 603,91 605,88 606,86 606,84 607,82 608,79 610,77 611,75 612,73 612,71 613,70 614,68 615,66 615,64 618,62 618,61 619,59 621,57 621,54 622,52 624,50 624,48 627,46 628,43 630,41 630,39 631,45 632,39 633,43 634,39 638,39 639,41 641,46 643,52 644,50 645,54 646,55 648,59 649,57" fill="none" stroke="#FF00FF" />
<polyline points="0,250 650,250" fill="none" stroke="#FFFFFF" />
<text x="20" y="265" font-size="12" fill="#FF1493"  >Bedroom - 68.9 to 73.5</text>
<text x="20" y="280" font-size="12" fill="#00FFFF"  >Sensorama - 71.7 to 75.2</text>
<text x="20" y="295" font-size="12" fill="#7FFF00"  >Main - 69.0 to 75.0</text>
<text x="20" y="310" font-size="12" fill="#FF00FF"  >Office - 72.2 to 80.3</text>
<text x="0" y="10" font-size="12" fill="#E0FFFF"  >82</text>
<text x="0" y="125" font-size="12" fill="#E0FFFF"  >75</text>
<text x="0" y="240" font-size="12" fill="#E0FFFF"  >68</text>
<text x="6" y="250" font-size="12" fill="#E0FFFF"  text-anchor="end" alignment-baseline="middle" transform="rotate(-90,6, 250)"  >11:32 Jul 18</text>
<text x="640" y="250" font-size="12" fill="#E0FFFF"  text-anchor="end" alignment-baseline="middle" transform="rotate(-90,640, 250)"  >11:32 Jul 21</text>
</svg>
